<?xml version="1.0" encoding="utf-8"?>
<!-- Generator: Adobe Illustrator 16.0.0, SVG Export Plug-In . SVG Version: 6.00 Build 0)  -->
<!DOCTYPE svg PUBLIC "-//W3C//DTD SVG 1.1//EN" "http://www.w3.org/Graphics/SVG/1.1/DTD/svg11.dtd">
<svg version="1.1" id="Layer_1" xmlns="http://www.w3.org/2000/svg" xmlns:xlink="http://www.w3.org/1999/xlink" x="0px" y="0px"
	 width="206px" height="266px" viewBox="0 0 206 266" enable-background="new 0 0 206 266" xml:space="preserve">
<path fill-rule="evenodd" clip-rule="evenodd" fill="#BAAB5A" d="M99.103,95.99c-39.924-12.736-53.499,14.871-77.247,8.661
	c-26.707-6.983-12.299-35.239,12.11-33.258C56.096,73.188,76.37,83.426,99.103,95.99"/>
<path fill-rule="evenodd" clip-rule="evenodd" fill="#5D2C25" d="M87.942,121.471c-10.698,4.252-23.021,2.88-33.083-2.191
	C54.237,107.004,66.971,93.055,82.026,96.8c7.533,1.873,27.117,9.627,35.098-1.551C114.674,106.229,98.029,117.463,87.942,121.471"
	/>
<path fill-rule="evenodd" clip-rule="evenodd" fill="#D2AF2A" d="M36.051,135.292c9.422-4.955,12.379-18.471,15.423-27.734
	c-8.403,5.624-21.323,2.307-30.684,7.166C11.044,119.773,10.34,131.465,2,137.002C11.506,135.934,27.833,139.605,36.051,135.292"/>
<path fill-rule="evenodd" clip-rule="evenodd" fill="#BAAB5A" d="M54.465,62.832c5.437,8.458,18.417,10.1,27.373,12.199
	c-5.982-7.44-3.942-19.872-9.286-28.277c-5.577-8.762-16.641-8.439-22.552-15.821C51.806,39.792,49.703,55.458,54.465,62.832"/>
<path fill-rule="evenodd" clip-rule="evenodd" fill="#D2AF2A" d="M84.738,75.598c5.049,9.373,18.592,12.192,27.886,15.14
	c-5.706-8.344-2.522-21.297-7.472-30.609C100,50.435,88.303,49.848,82.678,41.565C83.845,51.062,80.339,67.423,84.738,75.598"/>
<path fill-rule="evenodd" clip-rule="evenodd" fill="#BAAB5A" d="M141.991,119.216c32.568-26.374,16.947-52.877,35.177-69.315
	c20.5-18.488,36.205,9.067,21.148,28.383C184.663,95.794,164.976,107.113,141.991,119.216"/>
<path fill-rule="evenodd" clip-rule="evenodd" fill="#5D2C25" d="M126.826,95.897c2.323-11.275,10.233-20.82,19.996-26.446
	c10.599,6.221,15.27,24.522,3.869,35.047c-5.7,5.266-22.935,17.382-17.973,30.189C124.886,126.604,124.637,106.527,126.826,95.897"
	/>
<path fill-rule="evenodd" clip-rule="evenodd" fill="#D2AF2A" d="M143.768,44.94c-1.033,10.596,8.642,20.489,14.708,28.119
	c-0.085-10.113,9.781-19.089,10.86-29.581c1.132-10.92-8.253-17.926-8.304-27.938C156.707,24.072,144.672,35.7,143.768,44.94"/>
<path fill-rule="evenodd" clip-rule="evenodd" fill="#BAAB5A" d="M113.161,61.24c-4.125,9.168,1.578,20.942,4.701,29.596
	c2.975-9.072,14.507-14.145,18.639-23.207c4.302-9.449-2.003-18.549,0.965-27.53C131.021,46.444,116.743,53.229,113.161,61.24"/>
<path fill-rule="evenodd" clip-rule="evenodd" fill="#D2AF2A" d="M166.923,118.409c-10.603-0.929-20.396,8.844-27.965,14.991
	c10.107-0.188,19.185,9.587,29.685,10.56c10.934,1.02,17.843-8.436,27.857-8.588C187.921,131.135,176.171,119.218,166.923,118.409"
	/>
<path fill-rule="evenodd" clip-rule="evenodd" fill="#BAAB5A" d="M122.883,102.49c-22.351,35.447-50.506,23.062-64.685,43.104
	c-15.936,22.536,13.28,34.885,30.683,17.654C104.656,147.627,113.577,126.74,122.883,102.49"/>
<path fill-rule="evenodd" clip-rule="evenodd" fill="#D2AF2A" d="M102.151,25.176c-3.635,10.008,3.269,21.994,7.25,30.896
	c2.434-9.816,14.221-16.057,17.879-25.947c3.813-10.295-3.532-19.416-1.087-29.125C119.877,8.186,105.326,16.455,102.151,25.176"/>
<path fill="#5D2C25" d="M159.812,262.062c32.281-31.277,23.274-74.048-28.343-123.244l-5.589-0.649
	c43.286,46.184,49.639,88.555,17.893,119.312L159.812,262.062z"/>
</svg>
