<?xml version="1.0" encoding="utf-8"?>
<!-- Generator: Adobe Illustrator 16.0.0, SVG Export Plug-In . SVG Version: 6.00 Build 0)  -->
<!DOCTYPE svg PUBLIC "-//W3C//DTD SVG 1.1//EN" "http://www.w3.org/Graphics/SVG/1.1/DTD/svg11.dtd">
<svg version="1.1" id="Layer_1" xmlns="http://www.w3.org/2000/svg" xmlns:xlink="http://www.w3.org/1999/xlink" x="0px" y="0px"
	 width="201px" height="189px" viewBox="0 0 201 189" enable-background="new 0 0 201 189" xml:space="preserve">
<path fill-rule="evenodd" clip-rule="evenodd" fill="#BAAB5A" d="M96.36,94.079c-39.122-12.48-52.422,14.572-75.692,8.487
	c-26.17-6.843-12.052-34.531,11.867-32.589C54.217,71.735,74.084,81.768,96.36,94.079"/>
<path fill-rule="evenodd" clip-rule="evenodd" fill="#5D2C25" d="M85.424,119.047c-10.483,4.167-22.559,2.823-32.418-2.147
	c-0.609-12.028,11.868-25.696,26.621-22.027c7.381,1.836,26.572,9.435,34.391-1.52C111.617,104.112,95.308,115.121,85.424,119.047"
	/>
<path fill-rule="evenodd" clip-rule="evenodd" fill="#D2AF2A" d="M34.577,132.59c9.232-4.855,12.13-18.099,15.113-27.177
	c-8.234,5.511-20.894,2.262-30.066,7.021c-9.551,4.949-10.241,16.405-18.413,21.831C10.525,133.219,26.524,136.816,34.577,132.59"/>
<path fill-rule="evenodd" clip-rule="evenodd" fill="#BAAB5A" d="M52.62,61.587c5.328,8.288,18.047,9.896,26.822,11.953
	c-5.862-7.29-3.863-19.472-9.099-27.708c-5.464-8.586-16.306-8.27-22.099-15.503C50.014,39.012,47.954,54.362,52.62,61.587"/>
<path fill-rule="evenodd" clip-rule="evenodd" fill="#D2AF2A" d="M82.284,74.097c4.947,9.185,18.218,11.947,27.325,14.835
	c-5.592-8.176-2.473-20.869-7.322-29.993c-5.048-9.5-16.51-10.075-22.022-18.191C81.409,50.055,77.974,66.086,82.284,74.097"/>
<path fill-rule="evenodd" clip-rule="evenodd" fill="#BAAB5A" d="M138.385,116.837c31.914-25.843,16.607-51.812,34.47-67.92
	c20.087-18.116,35.476,8.885,20.723,27.812C180.198,93.887,160.907,104.978,138.385,116.837"/>
<path fill-rule="evenodd" clip-rule="evenodd" fill="#5D2C25" d="M123.525,93.987c2.276-11.048,10.027-20.401,19.594-25.914
	c10.386,6.096,14.962,24.029,3.791,34.342c-5.585,5.16-22.474,17.033-17.611,29.581C121.624,124.076,121.38,104.405,123.525,93.987"
	/>
<path fill-rule="evenodd" clip-rule="evenodd" fill="#D2AF2A" d="M140.125,44.056c-1.012,10.382,8.469,20.077,14.413,27.553
	c-0.083-9.909,9.584-18.705,10.642-28.985c1.109-10.7-8.087-17.564-8.137-27.376C152.806,23.608,141.012,35.001,140.125,44.056"/>
<path fill-rule="evenodd" clip-rule="evenodd" fill="#BAAB5A" d="M110.136,60.028c-4.043,8.984,1.546,20.521,4.605,29
	c2.915-8.89,14.216-13.86,18.265-22.74c4.214-9.26-1.963-18.176,0.945-26.976C127.635,45.529,113.646,52.178,110.136,60.028"/>
<path fill-rule="evenodd" clip-rule="evenodd" fill="#D2AF2A" d="M162.814,116.048c-10.389-0.912-19.986,8.665-27.401,14.689
	c9.904-0.185,18.798,9.393,29.087,10.346c10.714,1,17.483-8.265,27.297-8.414C183.391,128.517,171.877,116.839,162.814,116.048"/>
<path fill-rule="evenodd" clip-rule="evenodd" fill="#BAAB5A" d="M119.661,100.448c-21.901,34.733-49.49,22.598-63.384,42.236
	c-15.615,22.083,13.013,34.183,30.065,17.3C101.801,144.677,110.543,124.209,119.661,100.448"/>
<path fill-rule="evenodd" clip-rule="evenodd" fill="#D2AF2A" d="M99.346,24.689c-3.562,9.806,3.203,21.551,7.104,30.275
	c2.385-9.619,13.935-15.734,17.52-25.425c3.736-10.088-3.462-19.025-1.065-28.54C116.716,8.042,102.457,16.144,99.346,24.689"/>
<path fill-rule="evenodd" clip-rule="evenodd" fill="#D2AF2A" d="M109.183,164.737c1.554,10.317,13.106,17.404,20.7,23.205
	c-2.499-9.59,4.728-20.478,3.248-30.705c-1.536-10.647-12.129-15.061-14.567-24.564
	C116.489,141.814,107.834,155.743,109.183,164.737"/>
</svg>
