<?xml version="1.0" encoding="utf-8"?>
<!-- Generator: Adobe Illustrator 16.0.0, SVG Export Plug-In . SVG Version: 6.00 Build 0)  -->
<!DOCTYPE svg PUBLIC "-//W3C//DTD SVG 1.1//EN" "http://www.w3.org/Graphics/SVG/1.1/DTD/svg11.dtd">
<svg version="1.1" id="Layer_1" xmlns="http://www.w3.org/2000/svg" xmlns:xlink="http://www.w3.org/1999/xlink" x="0px" y="0px"
	 width="253px" height="231px" viewBox="0 0 253 231" enable-background="new 0 0 253 231" xml:space="preserve">
<path fill-rule="evenodd" clip-rule="evenodd" fill="#BAAB5A" d="M104.342,105.811c-40.689-12.98-54.524,15.156-78.727,8.827
	c-27.219-7.117-12.535-35.915,12.343-33.896C60.51,82.571,81.173,93.005,104.342,105.811"/>
<path fill-rule="evenodd" clip-rule="evenodd" fill="#5D2C25" d="M92.967,131.779c-10.903,4.334-23.462,2.936-33.717-2.233
	c-0.634-12.511,12.344-26.727,27.688-22.91c7.677,1.909,27.637,9.812,35.77-1.581C120.211,116.246,103.248,127.695,92.967,131.779"
	/>
<path fill-rule="evenodd" clip-rule="evenodd" fill="#D2AF2A" d="M40.082,145.865c9.603-5.05,12.617-18.824,15.719-28.266
	c-8.564,5.731-21.732,2.352-31.271,7.304c-9.934,5.146-10.651,17.062-19.151,22.705C15.066,146.52,31.707,150.262,40.082,145.865"/>
<path fill-rule="evenodd" clip-rule="evenodd" fill="#BAAB5A" d="M58.848,72.017c5.542,8.62,18.771,10.293,27.897,12.433
	c-6.097-7.583-4.018-20.253-9.464-28.819c-5.684-8.93-16.96-8.601-22.984-16.125C56.139,48.536,53.995,64.501,58.848,72.017"/>
<path fill-rule="evenodd" clip-rule="evenodd" fill="#D2AF2A" d="M89.702,85.028c5.146,9.553,18.949,12.425,28.42,15.43
	c-5.816-8.504-2.571-21.705-7.615-31.195c-5.251-9.88-17.172-10.479-22.905-18.92C88.791,60.022,85.219,76.696,89.702,85.028"/>
<path fill-rule="evenodd" clip-rule="evenodd" fill="#BAAB5A" d="M148.052,129.481c33.192-26.879,17.272-53.891,35.852-70.644
	c20.893-18.842,36.898,9.241,21.554,28.927C191.542,105.611,171.477,117.146,148.052,129.481"/>
<path fill-rule="evenodd" clip-rule="evenodd" fill="#5D2C25" d="M132.597,105.716c2.367-11.492,10.429-21.22,20.379-26.953
	c10.802,6.34,15.562,24.992,3.943,35.719c-5.81,5.367-23.374,17.715-18.317,30.767C130.619,137.011,130.365,116.55,132.597,105.716"
	/>
<path fill-rule="evenodd" clip-rule="evenodd" fill="#D2AF2A" d="M149.862,53.782c-1.053,10.798,8.808,20.882,14.99,28.658
	c-0.087-10.307,9.969-19.455,11.068-30.147c1.153-11.129-8.411-18.269-8.463-28.474C163.05,32.514,150.784,44.365,149.862,53.782"/>
<path fill-rule="evenodd" clip-rule="evenodd" fill="#BAAB5A" d="M118.669,70.394c-4.203,9.344,1.609,21.344,4.792,30.163
	c3.031-9.246,14.784-14.416,18.996-23.651c4.384-9.63-2.042-18.905,0.982-28.057C136.871,55.315,122.321,62.229,118.669,70.394"/>
<path fill-rule="evenodd" clip-rule="evenodd" fill="#D2AF2A" d="M173.462,128.659c-10.807-0.946-20.788,9.014-28.501,15.278
	c10.301-0.191,19.552,9.771,30.253,10.762c11.144,1.04,18.185-8.597,28.392-8.752C194.862,141.629,182.887,129.483,173.462,128.659"
	/>
<path fill-rule="evenodd" clip-rule="evenodd" fill="#BAAB5A" d="M128.577,112.435c-22.779,36.126-51.474,23.505-65.924,43.931
	c-16.242,22.968,13.535,35.553,31.271,17.992C110.001,158.437,119.093,137.149,128.577,112.435"/>
<path fill-rule="evenodd" clip-rule="evenodd" fill="#D2AF2A" d="M107.448,33.639c-3.705,10.2,3.332,22.415,7.389,31.489
	c2.479-10.004,14.493-16.365,18.222-26.444c3.886-10.492-3.601-19.788-1.108-29.684C125.514,16.324,110.683,24.751,107.448,33.639"
	/>
<path fill="#5D2C25" d="M245.185,220.106c-40.102,22.144-79.103,0.62-111.67-64.348l1.032-5.64
	c32.112,55.95,71.517,74.766,110.954,52.99L245.185,220.106z"/>
</svg>
