<?xml version="1.0" encoding="utf-8"?>
<!-- Generator: Adobe Illustrator 16.0.0, SVG Export Plug-In . SVG Version: 6.00 Build 0)  -->
<!DOCTYPE svg PUBLIC "-//W3C//DTD SVG 1.1//EN" "http://www.w3.org/Graphics/SVG/1.1/DTD/svg11.dtd">
<svg version="1.1" id="Layer_1" xmlns="http://www.w3.org/2000/svg" xmlns:xlink="http://www.w3.org/1999/xlink" x="0px" y="0px"
	 width="203px" height="255px" viewBox="0 0 203 255" enable-background="new 0 0 203 255" xml:space="preserve">
<path fill-rule="evenodd" clip-rule="evenodd" fill="#BAAB5A" d="M97.252,94.952c-39.488-12.597-52.914,14.709-76.402,8.567
	C-5.565,96.612,8.685,68.665,32.828,70.624C54.715,72.399,74.768,82.525,97.252,94.952"/>
<path fill-rule="evenodd" clip-rule="evenodd" fill="#5D2C25" d="M86.214,120.154c-10.582,4.206-22.77,2.849-32.722-2.167
	c-0.615-12.141,11.979-25.938,26.871-22.234c7.451,1.853,26.821,9.522,34.714-1.534C112.653,105.08,96.19,116.191,86.214,120.154"/>
<path fill-rule="evenodd" clip-rule="evenodd" fill="#D2AF2A" d="M34.89,133.824c9.319-4.9,12.244-18.269,15.255-27.431
	c-8.312,5.562-21.09,2.282-30.348,7.088c-9.641,4.995-10.337,16.558-18.586,22.035C10.612,134.459,26.762,138.091,34.89,133.824"/>
<path fill-rule="evenodd" clip-rule="evenodd" fill="#BAAB5A" d="M53.102,62.156c5.377,8.365,18.216,9.989,27.073,12.065
	c-5.917-7.358-3.899-19.655-9.185-27.968c-5.516-8.667-16.459-8.347-22.306-15.648C50.472,39.368,48.392,54.863,53.102,62.156"/>
<path fill-rule="evenodd" clip-rule="evenodd" fill="#D2AF2A" d="M83.045,74.783c4.994,9.271,18.389,12.059,27.581,14.975
	c-5.644-8.253-2.495-21.064-7.391-30.274c-5.096-9.588-16.665-10.169-22.229-18.362C82.161,50.516,78.694,66.697,83.045,74.783"/>
<path fill-rule="evenodd" clip-rule="evenodd" fill="#BAAB5A" d="M139.672,117.924c32.213-26.086,16.763-52.299,34.793-68.558
	c20.275-18.286,35.809,8.968,20.917,28.073C181.878,94.758,162.405,105.953,139.672,117.924"/>
<path fill-rule="evenodd" clip-rule="evenodd" fill="#5D2C25" d="M124.673,94.86c2.298-11.152,10.121-20.593,19.777-26.157
	c10.483,6.153,15.103,24.254,3.827,34.665c-5.638,5.208-22.685,17.192-17.776,29.859C122.754,125.231,122.507,105.375,124.673,94.86
	"/>
<path fill-rule="evenodd" clip-rule="evenodd" fill="#D2AF2A" d="M141.429,44.46c-1.021,10.48,8.548,20.265,14.548,27.812
	c-0.084-10.002,9.674-18.88,10.741-29.257c1.12-10.8-8.162-17.729-8.213-27.633C154.228,23.82,142.323,35.32,141.429,44.46"/>
<path fill-rule="evenodd" clip-rule="evenodd" fill="#BAAB5A" d="M111.157,60.582c-4.08,9.068,1.561,20.713,4.649,29.272
	c2.942-8.973,14.349-13.99,18.436-22.953c4.254-9.346-1.981-18.347,0.954-27.229C128.821,45.947,114.7,52.658,111.157,60.582"/>
<path fill-rule="evenodd" clip-rule="evenodd" fill="#D2AF2A" d="M164.331,117.126c-10.486-0.919-20.174,8.748-27.659,14.828
	c9.997-0.186,18.975,9.481,29.36,10.443c10.814,1.009,17.647-8.343,27.553-8.493C185.1,129.713,173.479,117.926,164.331,117.126"/>
<path fill-rule="evenodd" clip-rule="evenodd" fill="#BAAB5A" d="M120.772,101.381c-22.107,35.06-49.955,22.811-63.979,42.633
	c-15.762,22.29,13.135,34.504,30.348,17.462C102.745,146.024,111.568,125.366,120.772,101.381"/>
<path fill-rule="evenodd" clip-rule="evenodd" fill="#D2AF2A" d="M100.267,24.912c-3.596,9.898,3.233,21.753,7.17,30.559
	c2.407-9.709,14.065-15.881,17.684-25.664c3.771-10.182-3.494-19.203-1.075-28.807C117.8,8.107,103.407,16.286,100.267,24.912"/>
<path fill="#5D2C25" d="M180.722,252.704c25.438-36.46,8.622-76.285-50.777-114.309l-5.549,0.424
	c50.742,36.67,64.907,76.609,39.89,112.465L180.722,252.704z"/>
</svg>
